<svg width="754" height="424" viewBox="0 0 754 424" fill="none" xmlns="http://www.w3.org/2000/svg">
<g clip-path="url(#clip0)">
<mask id="path-1-outside-1" maskUnits="userSpaceOnUse" x="72.9243" y="105.035" width="217" height="217" fill="black">
<rect fill="white" x="72.9243" y="105.035" width="217" height="217"/>
<path fill-rule="evenodd" clip-rule="evenodd" d="M181.364 319.915C240.15 319.915 287.804 272.26 287.804 213.475C287.804 154.69 240.15 107.035 181.364 107.035C122.579 107.035 74.9243 154.69 74.9243 213.475C74.9243 272.26 122.579 319.915 181.364 319.915ZM155.933 192.381C159.141 200.413 166.154 209.285 176.973 218.997C185.592 226.762 191.082 233.072 193.442 237.927C195.828 242.731 195.699 247.856 193.058 253.301C190.416 258.747 186.268 262.048 180.615 263.204C174.961 264.36 168.267 263.061 160.53 259.308C152.234 255.284 146.53 250.128 143.419 243.84C140.383 237.526 140.495 231.01 143.754 224.291L129.019 217.144C125.884 223.607 124.863 230.248 125.957 237.066C127.101 243.909 130.266 250.411 135.45 256.573C140.659 262.684 147.081 267.591 154.716 271.294C166.473 276.998 177.172 278.855 186.813 276.868C196.478 274.829 203.496 269.305 207.866 260.297C210.607 254.647 211.717 249.118 211.197 243.71C210.727 238.327 208.625 232.811 204.888 227.164C201.228 221.49 195.395 215.108 187.391 208.019C179.438 200.954 174.281 194.931 171.919 189.95C169.632 184.943 169.588 180.174 171.785 175.645C174.526 169.995 178.672 166.568 184.223 165.363C189.851 164.131 196.278 165.269 203.505 168.775C211.292 172.552 216.385 177.412 218.784 183.354C221.208 189.245 220.79 195.55 217.531 202.268L232.265 209.416C235.253 203.258 236.352 196.78 235.562 189.984C234.823 183.213 232.166 176.894 227.593 171.029C223.07 165.188 216.991 160.416 209.357 156.712C198.159 151.28 187.654 149.737 177.84 152.081C168.102 154.399 161.11 159.935 156.863 168.689C153.11 176.425 152.8 184.322 155.933 192.381Z"/>
</mask>
<path fill-rule="evenodd" clip-rule="evenodd" d="M181.364 319.915C240.15 319.915 287.804 272.26 287.804 213.475C287.804 154.69 240.15 107.035 181.364 107.035C122.579 107.035 74.9243 154.69 74.9243 213.475C74.9243 272.26 122.579 319.915 181.364 319.915ZM155.933 192.381C159.141 200.413 166.154 209.285 176.973 218.997C185.592 226.762 191.082 233.072 193.442 237.927C195.828 242.731 195.699 247.856 193.058 253.301C190.416 258.747 186.268 262.048 180.615 263.204C174.961 264.36 168.267 263.061 160.53 259.308C152.234 255.284 146.53 250.128 143.419 243.84C140.383 237.526 140.495 231.01 143.754 224.291L129.019 217.144C125.884 223.607 124.863 230.248 125.957 237.066C127.101 243.909 130.266 250.411 135.45 256.573C140.659 262.684 147.081 267.591 154.716 271.294C166.473 276.998 177.172 278.855 186.813 276.868C196.478 274.829 203.496 269.305 207.866 260.297C210.607 254.647 211.717 249.118 211.197 243.71C210.727 238.327 208.625 232.811 204.888 227.164C201.228 221.49 195.395 215.108 187.391 208.019C179.438 200.954 174.281 194.931 171.919 189.95C169.632 184.943 169.588 180.174 171.785 175.645C174.526 169.995 178.672 166.568 184.223 165.363C189.851 164.131 196.278 165.269 203.505 168.775C211.292 172.552 216.385 177.412 218.784 183.354C221.208 189.245 220.79 195.55 217.531 202.268L232.265 209.416C235.253 203.258 236.352 196.78 235.562 189.984C234.823 183.213 232.166 176.894 227.593 171.029C223.07 165.188 216.991 160.416 209.357 156.712C198.159 151.28 187.654 149.737 177.84 152.081C168.102 154.399 161.11 159.935 156.863 168.689C153.11 176.425 152.8 184.322 155.933 192.381Z" fill="#7B61FF"/>
<path d="M176.973 218.997L177.769 218.114L177.767 218.112L176.973 218.997ZM155.933 192.381L154.824 192.812L154.828 192.822L155.933 192.381ZM193.442 237.927L192.373 238.447L192.377 238.456L193.442 237.927ZM193.058 253.301L191.988 252.782L191.988 252.782L193.058 253.301ZM180.615 263.204L180.853 264.369L180.853 264.369L180.615 263.204ZM160.53 259.308L160.011 260.378L160.011 260.378L160.53 259.308ZM143.419 243.84L142.347 244.355L142.353 244.367L143.419 243.84ZM143.754 224.291L144.824 224.81L145.343 223.74L144.273 223.221L143.754 224.291ZM129.019 217.144L129.538 216.074L128.468 215.555L127.949 216.625L129.019 217.144ZM125.957 237.066L124.782 237.255L124.784 237.263L125.957 237.066ZM135.45 256.573L134.54 257.338L134.545 257.344L135.45 256.573ZM154.716 271.294L154.197 272.364L154.197 272.364L154.716 271.294ZM186.813 276.868L187.053 278.032L187.058 278.031L186.813 276.868ZM207.866 260.297L208.936 260.816L208.936 260.816L207.866 260.297ZM211.197 243.71L210.012 243.814L210.013 243.824L211.197 243.71ZM204.888 227.164L203.889 227.808L203.896 227.82L204.888 227.164ZM187.391 208.019L186.602 208.908L186.603 208.909L187.391 208.019ZM171.919 189.95L170.837 190.444L170.84 190.452L170.844 190.46L171.919 189.95ZM171.785 175.645L172.855 176.164L172.855 176.164L171.785 175.645ZM184.223 165.363L184.476 166.525L184.478 166.524L184.223 165.363ZM203.505 168.775L202.986 169.845L202.986 169.845L203.505 168.775ZM218.784 183.354L217.681 183.799L217.684 183.807L218.784 183.354ZM217.531 202.268L216.461 201.749L215.942 202.819L217.012 203.338L217.531 202.268ZM232.265 209.416L231.746 210.486L232.816 211.005L233.335 209.935L232.265 209.416ZM235.562 189.984L234.379 190.113L234.38 190.121L235.562 189.984ZM227.593 171.029L226.652 171.757L226.655 171.76L227.593 171.029ZM209.357 156.712L208.838 157.782L208.838 157.782L209.357 156.712ZM177.84 152.081L178.116 153.238L178.117 153.237L177.84 152.081ZM156.863 168.689L157.933 169.208L157.933 169.208L156.863 168.689ZM286.615 213.475C286.615 271.603 239.493 318.726 181.364 318.726V321.104C240.806 321.104 288.994 272.917 288.994 213.475H286.615ZM181.364 108.224C239.493 108.224 286.615 155.346 286.615 213.475H288.994C288.994 154.033 240.806 105.846 181.364 105.846V108.224ZM76.1135 213.475C76.1135 155.346 123.236 108.224 181.364 108.224V105.846C121.922 105.846 73.735 154.033 73.735 213.475H76.1135ZM181.364 318.726C123.236 318.726 76.1135 271.603 76.1135 213.475H73.735C73.735 272.917 121.922 321.104 181.364 321.104V318.726ZM177.767 218.112C167.004 208.45 160.146 199.724 157.037 191.94L154.828 192.822C158.136 201.102 165.305 210.121 176.178 219.882L177.767 218.112ZM194.512 237.407C192.044 232.33 186.401 225.891 177.769 218.114L176.177 219.881C184.783 227.634 190.12 233.814 192.373 238.447L194.512 237.407ZM194.128 253.821C196.907 248.092 197.079 242.577 194.508 237.398L192.377 238.456C194.576 242.884 194.492 247.619 191.988 252.782L194.128 253.821ZM180.853 264.369C186.889 263.135 191.333 259.581 194.128 253.821L191.988 252.782C189.498 257.914 185.647 260.961 180.377 262.039L180.853 264.369ZM160.011 260.378C167.872 264.192 174.845 265.597 180.853 264.369L180.377 262.039C175.078 263.122 168.661 261.93 161.049 258.238L160.011 260.378ZM142.353 244.367C145.614 250.957 151.552 256.275 160.011 260.378L161.049 258.238C152.916 254.292 147.447 249.299 144.485 243.312L142.353 244.367ZM142.684 223.772C139.278 230.792 139.143 237.69 142.347 244.355L144.491 243.324C141.624 237.362 141.711 231.227 144.824 224.81L142.684 223.772ZM128.5 218.214L143.235 225.361L144.273 223.221L129.538 216.074L128.5 218.214ZM127.131 236.878C126.077 230.311 127.056 223.916 130.089 217.663L127.949 216.625C124.712 223.298 123.648 230.186 124.782 237.255L127.131 236.878ZM136.36 255.807C131.29 249.782 128.234 243.471 127.129 236.87L124.784 237.263C125.969 244.347 129.241 251.04 134.54 257.338L136.36 255.807ZM155.235 270.224C147.74 266.588 141.452 261.78 136.355 255.801L134.545 257.344C139.867 263.587 146.423 268.593 154.197 272.364L155.235 270.224ZM186.572 275.703C177.261 277.623 166.833 275.851 155.235 270.224L154.197 272.364C166.112 278.145 177.083 280.088 187.053 278.032L186.572 275.703ZM206.796 259.777C202.584 268.461 195.867 273.742 186.567 275.704L187.058 278.031C197.089 275.915 204.408 270.15 208.936 260.816L206.796 259.777ZM210.013 243.824C210.509 248.983 209.456 254.293 206.796 259.777L208.936 260.816C211.757 255.001 212.925 249.254 212.38 243.596L210.013 243.824ZM203.896 227.82C207.55 233.343 209.564 238.672 210.012 243.814L212.381 243.607C211.891 237.982 209.699 232.279 205.88 226.507L203.896 227.82ZM186.603 208.909C194.567 215.963 200.311 222.262 203.889 227.808L205.888 226.519C202.144 220.717 196.224 214.253 188.18 207.129L186.603 208.909ZM170.844 190.46C173.312 195.665 178.619 201.817 186.602 208.908L188.181 207.13C180.257 200.091 175.249 194.198 172.993 189.441L170.844 190.46ZM170.715 175.125C168.347 180.007 168.419 185.149 170.837 190.444L173.001 189.456C170.846 184.737 170.828 180.342 172.855 176.164L170.715 175.125ZM183.971 164.2C178.022 165.492 173.596 169.187 170.715 175.125L172.855 176.164C175.456 170.803 179.322 167.644 184.476 166.525L183.971 164.2ZM204.024 167.705C196.65 164.127 189.943 162.894 183.969 164.201L184.478 166.524C189.758 165.369 195.906 166.41 202.986 169.845L204.024 167.705ZM219.887 182.909C217.344 176.61 211.982 171.565 204.024 167.705L202.986 169.845C210.602 173.539 215.427 178.214 217.681 183.799L219.887 182.909ZM218.601 202.788C221.98 195.822 222.459 189.161 219.884 182.902L217.684 183.807C219.956 189.33 219.6 195.278 216.461 201.749L218.601 202.788ZM232.784 208.346L218.05 201.198L217.012 203.338L231.746 210.486L232.784 208.346ZM234.38 190.121C235.144 196.693 234.084 202.942 231.195 208.897L233.335 209.935C236.422 203.573 237.559 196.868 236.743 189.847L234.38 190.121ZM226.655 171.76C231.106 177.468 233.667 183.581 234.379 190.113L236.744 189.855C235.979 182.844 233.227 176.32 228.53 170.297L226.655 171.76ZM208.838 157.782C216.332 161.418 222.257 166.081 226.652 171.757L228.533 170.3C223.882 164.295 217.65 159.414 209.876 155.642L208.838 157.782ZM178.117 153.237C187.605 150.971 197.828 152.442 208.838 157.782L209.876 155.642C198.491 150.119 187.703 148.502 177.564 150.924L178.117 153.237ZM157.933 169.208C162.019 160.785 168.713 155.476 178.116 153.238L177.565 150.924C167.491 153.321 160.201 159.084 155.793 168.17L157.933 169.208ZM157.041 191.95C154.028 184.198 154.326 176.645 157.933 169.208L155.793 168.17C151.895 176.205 151.573 184.447 154.824 192.812L157.041 191.95Z" fill="#7B61FF" mask="url(#path-1-outside-1)"/>
<path d="M327.232 218.343V258.063H313.852V156.603H351.273C362.376 156.603 371.063 159.437 377.334 165.105C383.652 170.772 386.811 178.275 386.811 187.613C386.811 197.461 383.722 205.057 377.544 210.399C371.411 215.695 362.608 218.343 351.133 218.343H327.232ZM327.232 207.403H351.273C358.427 207.403 363.909 205.73 367.718 202.386C371.527 198.994 373.432 194.116 373.432 187.752C373.432 181.713 371.527 176.881 367.718 173.258C363.909 169.634 358.682 167.753 352.039 167.613H327.232V207.403ZM427.646 239.179L445.207 182.665H459.004L428.692 269.7C424 282.243 416.543 288.515 406.323 288.515L403.884 288.306L399.076 287.4V276.947L402.56 277.226C406.927 277.226 410.318 276.344 412.734 274.578C415.196 272.813 417.217 269.584 418.796 264.892L421.654 257.227L394.755 182.665H408.832L427.646 239.179ZM466.46 219.737C466.46 208.169 469.201 198.878 474.683 191.863C480.165 184.802 487.342 181.271 496.215 181.271C505.042 181.271 512.034 184.291 517.19 190.33V151.028H530.082V258.063H518.236L517.608 249.98C512.452 256.298 505.274 259.457 496.076 259.457C487.342 259.457 480.211 255.88 474.683 248.725C469.201 241.571 466.46 232.234 466.46 220.712V219.737ZM479.352 221.2C479.352 229.748 481.117 236.438 484.648 241.269C488.179 246.101 493.056 248.516 499.282 248.516C507.458 248.516 513.427 244.846 517.19 237.506V202.873C513.335 195.766 507.411 192.212 499.421 192.212C493.103 192.212 488.179 194.651 484.648 199.529C481.117 204.406 479.352 211.63 479.352 221.2ZM574.819 239.179L592.379 182.665H606.177L575.864 269.7C571.172 282.243 563.716 288.515 553.496 288.515L551.057 288.306L546.249 287.4V276.947L549.733 277.226C554.1 277.226 557.491 276.344 559.907 274.578C562.369 272.813 564.39 269.584 565.969 264.892L568.826 257.227L541.928 182.665H556.004L574.819 239.179Z" fill="#7B61FF"/>
</g>
<defs>
<clipPath id="clip0">
<rect width="754" height="423.382" fill="white"/>
</clipPath>
</defs>
</svg>
